# xmcd
#
# Track frame offsets:
#	150
#	18839
#	34876
#	49853
#	69757
#	84116
#	100419
#	113530
#	134241
#	151829
#	168003
#	184416
#	201818
#	218815
#	234115
#	252638
#	273976
#	290581
#	306122
#
# Disc length: 4304 seconds
#
# Revision: 0
# Processed by: cddbd v1.5.2PL0 Copyright (c) Steve Scherf et al.
# Submitted via: EasyCDDAExtractor 10.0.1.1
#
DISCID=0310ce13
DTITLE=Akon - Konvicted
DYEAR=2006
DGENRE=RnB
TTITLE0=Gangsta Bop
TTITLE1=Shake That [Feat.Eminem]
TTITLE2=Blown Away [Feat.Styles P.]
TTITLE3=I Wanna Fuck You [Feat.Snoop D
TTITLE4=Be Easy [Feat.G.A.G.E]
TTITLE5=Me, Myself and I
TTITLE6=You Don't Want It
TTITLE7=Cross That Line [Feat.Rick Ros
TTITLE8=Girls [Feat.Beenie Man]
TTITLE9=Keep On Calling [Feat.P.Money]
TTITLE10=Moonshine [Feat.Savage]
TTITLE11=Go To War [Feat.Papoose]
TTITLE12=So Fly [Feat.Blewz]
TTITLE13=Ride Out [Feat.Tru-Life]
TTITLE14=Don’t Let Up
TTITLE15=Gun In Hand [Feat.Booba]
TTITLE16=U Got Me [Feat.T-Pain]
TTITLE17=Look Me In My Eyes [Feat.Blast
TTITLE18=On Da Corner [Feat.Fat Joe and S
EXTD=
EXTT0=
EXTT1=
EXTT2=
EXTT3=
EXTT4=
EXTT5=
EXTT6=
EXTT7=
EXTT8=
EXTT9=
EXTT10=
EXTT11=
EXTT12=
EXTT13=
EXTT14=
EXTT15=
EXTT16=
EXTT17=
EXTT18=
PLAYORDER=
